<?xml version="1.0" standalone="no"?>
<!DOCTYPE svg PUBLIC "-//W3C//DTD SVG 20010904//EN"
 "http://www.w3.org/TR/2001/REC-SVG-20010904/DTD/svg10.dtd">
<svg version="1.0" xmlns="http://www.w3.org/2000/svg"
 width="512.000000pt" height="512.000000pt" viewBox="0 0 512.000000 512.000000"
 preserveAspectRatio="xMidYMid meet">
<metadata>
Created by potrace 1.14, written by Peter Selinger 2001-2017
</metadata>
<g transform="translate(0.000000,512.000000) scale(0.100000,-0.100000)"
fill="#000000" stroke="none">
<path d="M1595 5062 c-16 -2 -52 -10 -80 -19 -43 -14 -75 -40 -228 -192 -172
-169 -219 -230 -231 -293 -3 -13 -5 -159 -5 -325 l-1 -301 -292 -4 c-287 -4
-294 -4 -360 -30 -100 -38 -173 -85 -239 -156 -68 -72 -132 -195 -149 -287 -8
-43 -10 -463 -8 -1495 4 -1554 0 -1447 55 -1565 70 -153 223 -277 393 -322 60
-15 223 -16 2110 -16 1900 0 2050 1 2110 17 92 24 156 56 226 111 83 67 151
158 183 246 38 101 40 140 41 805 0 368 -4 662 -9 675 -42 110 -189 124 -251
24 -21 -35 -21 -36 -21 -667 0 -417 -3 -652 -10 -687 -24 -119 -126 -218 -244
-237 -22 -3 -938 -6 -2035 -6 -1521 0 -2005 2 -2039 12 -114 31 -200 123 -220
236 -6 37 -10 399 -10 986 l1 926 604 1 604 0 1 -119 c1 -66 2 -123 3 -127 1
-5 5 -26 10 -48 49 -260 268 -467 541 -511 52 -9 966 -9 1028 0 223 31 422
187 508 396 15 37 30 86 35 111 4 24 9 47 10 52 1 4 2 61 3 126 l1 120 695 0
c763 0 723 -3 770 59 19 26 20 45 23 437 3 476 0 500 -75 634 -82 144 -235
258 -391 290 -30 6 -166 11 -317 11 l-265 0 0 304 c0 302 -3 336 -37 401 -9
17 -93 108 -187 203 -162 164 -198 193 -276 218 -23 7 -1905 13 -1975 6z
m1640 -982 l1 -150 -676 0 -675 0 0 150 0 150 675 0 675 0 0 -150z"/>
</g>
</svg>
