<?xml version="1.0" standalone="no"?>
<!DOCTYPE svg PUBLIC "-//W3C//DTD SVG 20010904//EN"
 "http://www.w3.org/TR/2001/REC-SVG-20010904/DTD/svg10.dtd">
<svg version="1.0" xmlns="http://www.w3.org/2000/svg"
 width="1000.000000pt" height="1000.000000pt" viewBox="0 0 1000.000000 1000.000000"
 preserveAspectRatio="xMidYMid meet">
<metadata>
Created by potrace 1.14, written by Peter Selinger 2001-2017
</metadata>
<g transform="translate(0.000000,1000.000000) scale(0.100000,-0.100000)"
fill="#000000" stroke="none">
<path d="M3417 8516 c-38 -14 -59 -27 -88 -57 -55 -54 -69 -162 -31 -236 21
-41 77 -93 100 -93 9 0 12 -65 12 -240 l0 -239 -997 -3 c-980 -3 -999 -3
-1054 -24 -170 -62 -293 -192 -343 -363 -15 -50 -16 -299 -14 -2670 l3 -2616
22 -65 c74 -217 260 -379 483 -422 64 -12 6872 -16 6955 -4 204 30 394 176
480 369 55 126 53 -20 53 2747 0 1488 -4 2580 -9 2615 -12 81 -76 208 -135
268 -81 84 -192 143 -299 161 -17 2 -467 5 -1001 5 l-971 1 0 236 0 235 26 14
c124 64 147 241 45 337 -65 60 29 57 -1657 57 -1255 0 -1549 -3 -1580 -13z
m2749 -638 l0 -228 -1168 0 -1168 0 0 230 0 230 1168 -2 1167 -3 1 -227z
m2284 -661 c49 -22 89 -63 111 -112 17 -39 18 -90 19 -926 0 -656 -3 -894 -11
-919 -30 -84 -88 -120 -239 -145 -32 -5 -98 -17 -110 -20 -3 -1 -27 -5 -55 -9
-27 -4 -61 -10 -75 -12 -14 -3 -34 -6 -45 -8 -11 -2 -40 -6 -65 -10 -124 -20
-212 -33 -285 -42 -27 -3 -63 -8 -80 -10 -42 -7 -93 -14 -140 -19 -89 -10
-141 -16 -165 -20 -14 -2 -56 -7 -95 -11 -38 -3 -81 -7 -95 -9 -116 -14 -218
-24 -300 -30 -36 -3 -90 -7 -120 -10 -85 -8 -157 -14 -250 -20 -47 -3 -110 -8
-140 -10 -106 -8 -276 -17 -374 -18 l-98 -2 -3 66 c-2 36 -11 92 -20 125 -9
32 -17 64 -18 71 -5 19 -51 108 -59 111 -5 2 -8 8 -8 14 0 15 -52 73 -62 70
-5 -1 -7 1 -4 6 5 8 -37 52 -49 52 -3 0 -15 9 -26 19 -18 16 -51 35 -129 71
-36 17 -165 23 -490 23 -215 -1 -360 -5 -385 -12 -22 -6 -43 -11 -48 -11 -49
-1 -255 -158 -240 -184 3 -6 3 -8 -2 -4 -13 12 -92 -119 -99 -164 -1 -7 -4
-17 -7 -23 -6 -9 -18 -64 -25 -110 -2 -11 -4 -44 -5 -73 l-1 -53 -112 5 c-176
9 -362 20 -496 31 -41 3 -109 8 -150 11 -41 2 -91 6 -110 9 -19 2 -71 6 -115
9 -44 4 -89 8 -100 10 -11 2 -60 7 -109 11 -49 4 -98 8 -109 11 -12 2 -48 6
-81 9 -34 3 -72 7 -85 10 -14 2 -52 7 -85 10 -34 3 -72 7 -86 10 -14 2 -45 7
-70 9 -25 3 -61 7 -80 10 -19 3 -55 8 -80 11 -25 2 -58 7 -75 10 -16 4 -43 8
-60 10 -61 7 -122 16 -175 25 -30 5 -71 12 -90 15 -19 3 -46 8 -60 10 -49 10
-75 15 -110 20 -47 7 -78 13 -98 19 -9 3 -33 8 -52 11 -19 3 -40 11 -47 17 -7
6 -13 7 -13 4 0 -15 -63 61 -79 95 -15 32 -16 119 -16 930 1 860 2 895 20 929
11 19 18 38 17 43 -1 4 5 7 13 7 8 0 15 4 15 9 0 17 70 53 117 59 25 4 1570 6
3432 6 3034 -2 3390 -3 3421 -17z m-3092 -2171 c12 -10 30 -36 41 -58 18 -37
20 -62 21 -272 l1 -232 -423 0 -423 1 -1 215 c0 144 4 229 12 259 13 46 46 88
78 100 10 4 166 7 346 7 305 -1 329 -2 348 -20z m-3863 -320 c33 -8 101 -22
150 -30 50 -9 101 -18 115 -21 28 -6 183 -31 280 -45 116 -18 124 -19 175 -25
28 -3 61 -8 75 -10 14 -2 45 -7 70 -10 25 -3 61 -8 80 -10 19 -3 55 -8 80 -10
25 -3 61 -7 80 -10 36 -4 113 -13 185 -20 22 -3 67 -7 100 -11 33 -4 74 -8 90
-9 145 -12 185 -16 215 -20 19 -2 73 -7 120 -10 47 -4 101 -8 120 -10 19 -2
89 -6 155 -10 66 -4 127 -9 135 -10 8 -2 85 -6 170 -10 85 -4 169 -8 185 -10
17 -2 41 -3 55 -4 26 -1 26 -1 27 -99 0 -76 5 -110 21 -144 19 -43 75 -98 100
-98 13 0 13 -3 14 -267 0 -149 3 -180 22 -236 59 -177 187 -261 461 -304 65
-10 362 -10 442 0 77 9 220 50 275 78 91 46 171 147 198 249 8 27 13 129 15
255 1 116 3 212 4 215 0 3 16 13 34 23 36 19 73 69 86 113 4 16 9 69 10 119 1
49 4 91 6 93 4 5 14 5 240 16 127 6 203 11 335 21 36 3 97 8 135 10 66 5 93 7
248 20 34 3 82 7 107 10 25 3 74 7 110 10 36 3 103 10 150 15 47 6 108 13 135
15 28 3 66 8 85 10 19 3 55 7 80 10 25 3 79 10 120 15 41 5 98 12 125 15 28 4
75 10 105 16 30 5 78 11 105 14 28 3 57 8 65 10 8 2 38 7 65 11 40 5 343 58
455 80 14 3 34 6 45 7 20 2 20 -4 22 -1335 l1 -1338 -24 -49 c-29 -57 -80 -96
-144 -109 -27 -5 -1438 -9 -3440 -8 -3272 2 -3396 2 -3430 20 -49 26 -79 55
-103 101 -20 40 -20 44 -21 1383 -1 888 2 1342 9 1342 6 0 37 -7 70 -14z
m3790 -830 c1 -193 11 -175 -107 -197 -65 -12 -280 -15 -332 -5 -16 3 -54 10
-83 16 l-53 11 0 174 0 174 288 -2 287 -2 0 -169z"/>
</g>
</svg>
